<?xml version="1.0" standalone="no"?>
<!DOCTYPE svg PUBLIC "-//W3C//DTD SVG 20010904//EN"
 "http://www.w3.org/TR/2001/REC-SVG-20010904/DTD/svg10.dtd">
<svg version="1.0" xmlns="http://www.w3.org/2000/svg"
 width="512.000000pt" height="512.000000pt" viewBox="0 0 512.000000 512.000000"
 preserveAspectRatio="xMidYMid meet">
<metadata>
Created by potrace 1.11, written by Peter Selinger 2001-2013
</metadata>
<g transform="translate(0.000000,512.000000) scale(0.100000,-0.100000)"
fill="#000000" stroke="none">
<path d="M819 5116 c-2 -2 -24 -6 -49 -9 -197 -24 -428 -161 -571 -337 -88
-108 -165 -283 -188 -425 -3 -22 -6 -832 -6 -1800 0 -1648 1 -1764 18 -1829
50 -196 157 -372 303 -497 119 -102 299 -185 449 -207 69 -10 3518 -9 3579 1
27 4 52 10 56 12 4 2 18 6 33 9 14 2 63 20 109 38 266 109 463 338 541 631
l22 82 0 1760 c0 968 -3 1781 -8 1807 -29 178 -126 364 -258 497 -117 116
-254 195 -428 244 l-76 22 -1761 3 c-968 1 -1762 0 -1765 -2z"/>
</g>
</svg>
